
<svg xmlns="http://www.w3.org/2000/svg" viewBox="0 0 100.98 132.84"><defs><style>.cls-1{fill:#e5e5e5;}.cls-2{fill:#4368b1;}.cls-3{fill:#fff;}</style></defs><title>Asset 2aa</title><g id="Layer_2" data-name="Layer 2"><g id="Layer_1-2" data-name="Layer 1"><path class="cls-1" d="M100.8,51.18A51.28,51.28,0,0,0,51,.06l-.89,0V0l-.58,0-.58,0V0L48,.06A51.46,51.46,0,0,0,37.38,1.49l-1.44.35-.08,1.48L35,19l-.05.94h-26l-.6.81A51,51,0,0,0,.88,35L0,37.65H13.46l.07,1L15.68,68.9l.06.91c-3.66.24-7.42.42-11.24.52l-2.92.08,1.13,2.7c10.33,24.63,35.34,54.61,44.56,58.74l2.23,1,.58-.26,1.65-.74C58.07,129,71.07,114.76,82,98.7,89.82,87.17,102.65,65.7,100.8,51.18Zm-38.56.15A12.65,12.65,0,0,1,50.75,64V38.67A12.65,12.65,0,0,1,62.24,51.33Z"/><path class="cls-2" d="M4.56,72.32C14.78,96.67,39.48,126.16,48.09,130V67.07C38.32,70,21.22,71.88,4.56,72.32Z"/><path class="cls-2" d="M10,21.93A49.11,49.11,0,0,0,2.78,35.65H48.09V21.93Z"/><path class="cls-2" d="M17.67,68.76c12-.86,23.08-2.45,30.29-4.57l.13,0V38.49H15.52Z"/><path class="cls-2" d="M37,19.1h11.1v-17A49.32,49.32,0,0,0,37.85,3.44Z"/><ellipse class="cls-3" cx="35.77" cy="86.74" rx="2.78" ry="2.33"/></g></g></svg>